<?xml version="1.0" encoding="iso-8859-1"?>
<!-- Generator: Adobe Illustrator 18.0.0, SVG Export Plug-In . SVG Version: 6.00 Build 0)  -->
<!DOCTYPE svg PUBLIC "-//W3C//DTD SVG 1.1//EN" "http://www.w3.org/Graphics/SVG/1.1/DTD/svg11.dtd">
<svg version="1.1" id="Capa_1" xmlns="http://www.w3.org/2000/svg" xmlns:xlink="http://www.w3.org/1999/xlink" x="0px" y="0px"
	 viewBox="0 0 362.715 362.715" style="enable-background:new 0 0 362.715 362.715;" xml:space="preserve">
<path d="M352.464,302.966l-90.374-90.373c-6.689-6.69-15.414-10.097-24.182-10.238c33.904-50.513,28.561-119.733-16.045-164.339
	c-50.688-50.687-133.161-50.687-183.848,0c-50.688,50.687-50.688,133.161,0,183.848c44.606,44.606,113.826,49.95,164.339,16.045
	c0.142,8.767,3.548,17.492,10.238,24.182l90.373,90.374c13.669,13.668,35.829,13.668,49.498,0
	C366.132,338.795,366.132,316.634,352.464,302.966z M193.579,193.579c-35.091,35.091-92.188,35.091-127.279,0
	c-35.091-35.091-35.091-92.188,0-127.279c35.091-35.091,92.188-35.091,127.279,0C228.67,101.39,228.67,158.488,193.579,193.579z"/>
<g>
</g>
<g>
</g>
<g>
</g>
<g>
</g>
<g>
</g>
<g>
</g>
<g>
</g>
<g>
</g>
<g>
</g>
<g>
</g>
<g>
</g>
<g>
</g>
<g>
</g>
<g>
</g>
<g>
</g>
</svg>
